<svg width="15" height="14" viewBox="0 0 15 14" fill="none" xmlns="http://www.w3.org/2000/svg">
<path d="M0.210938 12.7539L1.1499 11.1455H0.253418V10.8525H1.59375V11.1016L0.657715 12.7144H1.61133V13H0.210938V12.7539Z" fill="#1A9EE6"/>
<path d="M2.2915 13V10.8525H3.229C3.396 10.8525 3.52881 10.877 3.62744 10.9258C3.72705 10.9746 3.79834 11.0464 3.84131 11.1411C3.88525 11.2358 3.90723 11.353 3.90723 11.4927C3.90723 11.5894 3.89746 11.6758 3.87793 11.752C3.85938 11.8281 3.82715 11.8936 3.78125 11.9482C3.73633 12.002 3.6748 12.0454 3.59668 12.0786L4.02441 13H3.62305L3.229 12.1372H2.68115V13H2.2915ZM2.68115 11.856H3.24512C3.32324 11.856 3.38281 11.8408 3.42383 11.8105C3.46484 11.7803 3.49316 11.7393 3.50879 11.6875C3.52441 11.6348 3.53223 11.5767 3.53223 11.5132C3.53223 11.4517 3.52588 11.3921 3.51318 11.3345C3.50146 11.2759 3.47705 11.228 3.43994 11.1909C3.40283 11.1528 3.3457 11.1338 3.26855 11.1338H2.68115V11.856ZM5.34131 13.0366C5.15283 13.0366 4.99805 13.0171 4.87695 12.978C4.75586 12.939 4.66162 12.8853 4.59424 12.8169C4.52686 12.7476 4.47949 12.6665 4.45215 12.5737C4.42578 12.481 4.4126 12.3809 4.4126 12.2734V11.5996C4.4126 11.4893 4.42578 11.3867 4.45215 11.292C4.47852 11.1973 4.52539 11.1143 4.59277 11.043C4.66016 10.9717 4.75439 10.9165 4.87549 10.8774C4.99658 10.8374 5.15186 10.8174 5.34131 10.8174C5.52295 10.8174 5.67236 10.8384 5.78955 10.8804C5.90674 10.9224 5.99805 10.9805 6.06348 11.0547C6.12988 11.1279 6.17578 11.2134 6.20117 11.311C6.22754 11.4077 6.24072 11.5112 6.24072 11.6216V12.2515C6.24072 12.3579 6.22754 12.4585 6.20117 12.5532C6.1748 12.6479 6.12842 12.7314 6.06201 12.8037C5.99658 12.876 5.90527 12.9331 5.78809 12.9751C5.67188 13.0161 5.52295 13.0366 5.34131 13.0366ZM5.34131 12.729C5.45654 12.729 5.55176 12.7178 5.62695 12.6953C5.70215 12.6719 5.7583 12.6304 5.79541 12.5708C5.8335 12.5112 5.85254 12.4277 5.85254 12.3203V11.5425C5.85254 11.436 5.8335 11.3525 5.79541 11.292C5.7583 11.2314 5.70166 11.1885 5.62549 11.1631C5.55029 11.1367 5.45557 11.1235 5.34131 11.1235C5.229 11.1235 5.13232 11.1362 5.05127 11.1616C4.97021 11.186 4.9082 11.229 4.86523 11.2905C4.82324 11.3511 4.80225 11.4351 4.80225 11.5425V12.3203C4.80225 12.4277 4.82324 12.5112 4.86523 12.5708C4.90723 12.6304 4.96875 12.6719 5.0498 12.6953C5.13086 12.7178 5.22803 12.729 5.34131 12.729ZM7.62207 13.0366C7.43457 13.0366 7.28223 13.0181 7.16504 12.981C7.04883 12.9438 6.95947 12.8921 6.89697 12.8257C6.83447 12.7583 6.7915 12.6792 6.76807 12.5884C6.74463 12.4976 6.73291 12.3979 6.73291 12.2896V11.5864C6.73291 11.4761 6.74414 11.3745 6.7666 11.2817C6.79004 11.188 6.83252 11.1064 6.89404 11.0371C6.95654 10.9678 7.0459 10.9141 7.16211 10.876C7.2793 10.8369 7.43213 10.8174 7.62061 10.8174C7.79736 10.8174 7.94043 10.835 8.0498 10.8701C8.15918 10.9043 8.24316 10.9536 8.30176 11.0181C8.36035 11.0825 8.3999 11.1597 8.42041 11.2495C8.44189 11.3384 8.45264 11.4375 8.45264 11.5469V11.5703L8.07617 11.6128V11.5264C8.07617 11.416 8.06201 11.332 8.03369 11.2744C8.00635 11.2168 7.95947 11.1772 7.89307 11.1558C7.82666 11.1343 7.73584 11.1235 7.62061 11.1235C7.50732 11.1235 7.41406 11.1353 7.34082 11.1587C7.26758 11.1821 7.21289 11.2236 7.17676 11.2832C7.14062 11.3428 7.12256 11.4268 7.12256 11.5352V12.335C7.12256 12.4424 7.14062 12.5244 7.17676 12.5811C7.21289 12.6377 7.26807 12.6768 7.34229 12.6982C7.4165 12.7188 7.51074 12.729 7.625 12.729C7.73926 12.729 7.8291 12.7202 7.89453 12.7026C7.95996 12.6841 8.00635 12.6475 8.03369 12.5928C8.06201 12.5371 8.07617 12.4541 8.07617 12.3438V12.2866H8.45264V12.3174C8.45264 12.4238 8.44287 12.521 8.42334 12.6089C8.40381 12.6968 8.36572 12.7725 8.30908 12.8359C8.25244 12.8994 8.16895 12.9487 8.05859 12.9839C7.94824 13.019 7.80273 13.0366 7.62207 13.0366ZM9.74609 11.96L9.6626 11.9614L9.33594 12.3555V13H8.94775V10.8525H9.33594V11.9365L10.231 10.8525H10.6572L9.74609 11.96ZM9.5498 11.957L9.82373 11.7358L10.7085 13H10.272L9.5498 11.957ZM11.0542 10.8525H12.4399V11.144H11.4424V11.7593H12.3257V12.042H11.4424V12.7085H12.4561V13H11.0542V10.8525ZM13.3232 13V11.1543H12.7183V10.8525H14.3164V11.1543H13.7114V13H13.3232Z" fill="white"/>
<path fill-rule="evenodd" clip-rule="evenodd" d="M8.10204 0H5.89796L1 9.30612H1.73469C1.73469 8.96799 2.00881 8.69388 2.34694 8.69388C2.41371 8.69388 2.47798 8.70457 2.53813 8.72432C2.66902 8.41842 2.97275 8.20408 3.32653 8.20408C3.68031 8.20408 3.98404 8.41842 4.11493 8.72432C4.17508 8.70457 4.23936 8.69388 4.30612 8.69388C4.38268 8.69388 4.45596 8.70793 4.52352 8.7336C4.63209 8.56252 4.82319 8.44898 5.04082 8.44898C5.12191 8.44898 5.19932 8.46474 5.27014 8.49338C5.43231 8.17627 5.76223 7.95918 6.14286 7.95918C6.16447 7.95918 6.18592 7.95988 6.20719 7.96126C6.29158 7.81372 6.4505 7.71429 6.63265 7.71429C6.72955 7.71429 6.81987 7.74242 6.89589 7.79097C6.91749 7.30391 6.95604 6.97959 7 6.97959C7.04396 6.97959 7.08251 7.30391 7.10411 7.79097C7.18013 7.74242 7.27045 7.71429 7.36735 7.71429C7.5495 7.71429 7.70842 7.81372 7.79281 7.96126C7.81408 7.95988 7.83553 7.95918 7.85714 7.95918C8.23777 7.95918 8.56769 8.17627 8.72986 8.49338C8.80068 8.46474 8.87809 8.44898 8.95918 8.44898C9.17681 8.44898 9.36791 8.56252 9.47648 8.7336C9.54404 8.70793 9.61732 8.69388 9.69388 8.69388C9.76064 8.69388 9.82492 8.70457 9.88507 8.72432C10.016 8.41842 10.3197 8.20408 10.6735 8.20408C11.0273 8.20408 11.331 8.41842 11.4619 8.72432C11.522 8.70457 11.5863 8.69388 11.6531 8.69388C11.9912 8.69388 12.2653 8.96799 12.2653 9.30612H13L8.10204 0ZM7 0.612245C6.60141 1.45661 6.46658 1.99226 6.38775 3.06122V4.77551L6.63265 5.5102H7.36735L7.61224 4.77551V3.06122C7.54328 2.04961 7.40409 1.51575 7 0.612245ZM7.00006 4.28565C7.20294 4.28565 7.36741 4.12119 7.36741 3.91831C7.36741 3.71543 7.20294 3.55096 7.00006 3.55096C6.79718 3.55096 6.63271 3.71543 6.63271 3.91831C6.63271 4.12119 6.79718 4.28565 7.00006 4.28565ZM5.89796 5.38775L6.26531 5.14286L6.5102 5.7551H6.87755V6.97959L5.65306 5.87755L5.89796 5.38775ZM8.10203 5.38779L7.73468 5.14289L7.48978 5.75514H7.12243V6.97963L8.34692 5.87759L8.10203 5.38779Z" fill="#1A9EE6"/>
</svg>
